# Blender v2.79 (sub 0) OBJ File: 'console_base.blend'
# www.blender.org
o Cube
v -0.499974 -0.500000 0.501444
v -0.500021 0.300000 -0.198556
v 0.499979 0.299998 -0.198620
v -0.499998 0.500000 0.146273
v -0.499974 0.500000 0.501444
v -0.500041 0.500000 -0.498556
v 0.500026 -0.055938 0.501379
v 0.500026 0.499998 0.501379
v -0.500041 0.400000 -0.498556
v -0.500008 -0.500000 0.001444
v 0.500002 0.499998 0.146209
v -0.499974 -0.055936 0.501444
v -0.500004 0.500000 0.050009
v 0.500026 -0.500002 0.501380
v 0.499959 0.399998 -0.498621
v 0.499959 0.499998 -0.498621
v 0.499996 0.499998 0.049945
v 0.499992 -0.500002 0.001380
vt 0.877927 0.284821
vt 0.799137 0.348216
vt 0.768624 0.348216
vt 0.656042 0.171996
vt 0.656042 0.031238
vt 0.814531 0.031238
vt 0.962749 0.013901
vt 0.962749 0.175027
vt 0.708758 0.304176
vt 0.781327 0.013901
vt 0.966226 0.272628
vt 0.666369 0.272628
vt 0.666365 0.032742
vt 0.966222 0.032743
vt 0.962749 0.376745
vt 0.833877 0.376745
vt 0.798949 0.376745
vt 0.599905 0.376745
vt 0.599905 0.340460
vt 0.973021 0.348216
vt 0.973021 0.316518
vt 0.656042 0.348216
vt 0.981917 0.496307
vt 0.501084 0.496306
vt 0.501085 0.448222
vt 0.981917 0.448223
vt 0.993472 0.473067
vt 0.993503 0.473066
vt 0.853047 0.426248
vt 0.853017 0.426248
vt 0.662353 0.163053
vt 0.987664 0.163053
vt 0.987664 0.343905
vt 0.662353 0.343905
vt 0.635588 0.276526
vt 0.004654 0.276578
vt 0.004637 0.005289
vt 0.635571 0.005237
vt 0.444753 0.258390
vt 0.925349 0.258390
vt 0.927974 0.479127
vt 0.447378 0.479127
vt 0.662353 0.018595
vt 0.987664 0.018594
vt 0.635613 0.551840
vt 0.004679 0.551892
vt 0.004659 0.331583
vt 0.635593 0.331531
vn 1.0000 -0.0000 -0.0001
vn -1.0000 -0.0000 0.0001
vn -0.0001 -0.2425 -0.9701
vn -0.0001 -0.0000 -1.0000
vn -0.0000 -0.9487 -0.3162
vn 0.0001 0.0000 1.0000
vn 0.0000 1.0000 0.0000
vn -0.0000 -1.0000 0.0000
s off
f 3/1/1 17/2/1 11/3/1 7/4/1
f 14/5/1 18/6/1 3/1/1 7/4/1
f 1/7/2 12/8/2 2/9/2 10/10/2
f 2/11/3 3/12/3 18/13/3 10/14/3
f 12/8/2 5/15/2 4/16/2
f 2/9/2 12/8/2 4/16/2 13/17/2
f 6/18/2 9/19/2 2/9/2 13/17/2
f 16/20/1 17/2/1 3/1/1 15/21/1
f 7/4/1 11/3/1 8/22/1
f 6/23/4 16/24/4 15/25/4 9/26/4
f 9/27/5 15/28/5 3/29/5 2/30/5
f 12/31/6 7/32/6 8/33/6 5/34/6
f 13/35/7 17/36/7 16/37/7 6/38/7
f 10/39/8 18/40/8 14/41/8 1/42/8
f 1/43/6 14/44/6 7/32/6 12/31/6
f 5/45/7 8/46/7 11/47/7 4/48/7
f 13/35/7 4/48/7 11/47/7 17/36/7
